# xmcd CD database file
#
# Track frame offsets:
#	150
#	15495
#	33472
#	42692
#	65600
#	82642
#	96760
#	111610
#	125715
#	152142
#	164107
#	185212
#
# Disc length: 2597 seconds
#
# Revision: 1
# Processed by: cddbd v1.5.1PL0 Copyright (c) Steve Scherf et al.
# Submitted via: CDex 1.51
#
DISCID=ab0a230c
DTITLE=Homesick James - Words Of Wisdom
DYEAR=1997
DGENRE=Blues
TTITLE0=She's Gone
TTITLE1=Tell Me, Baby
TTITLE2=Travelin' Woman
TTITLE3=Rock Me, Baby
TTITLE4=Last Night
TTITLE5=My Little Woman
TTITLE6=Sweet Little Angel
TTITLE7=Pawn Shop Blues
TTITLE8=12 Year Old Boy
TTITLE9=My Baby's Gone
TTITLE10=You don't Have to Go
TTITLE11=Nashville Blues
EXTD=YEAR: 1997
EXTT0=
EXTT1=
EXTT2=
EXTT3=
EXTT4=
EXTT5=
EXTT6=
EXTT7=
EXTT8=
EXTT9=
EXTT10=
EXTT11=
PLAYORDER=
